<?xml version="1.0" standalone="no"?><!DOCTYPE svg PUBLIC "-//W3C//DTD SVG 1.1//EN" "http://www.w3.org/Graphics/SVG/1.1/DTD/svg11.dtd"><svg t="1589766286752" class="icon" viewBox="0 0 1092 1024" version="1.1" xmlns="http://www.w3.org/2000/svg" p-id="2210" xmlns:xlink="http://www.w3.org/1999/xlink" width="213.28125" height="200"><defs><style type="text/css"></style></defs><path d="M1058.172343 955.733333h-68.266667V443.772343a102.43901 102.43901 0 0 0-102.36099-102.360991H819.2v-136.533333a34.172343 34.172343 0 1 0-68.266667 0v136.533333H580.227657V170.783695a34.172343 34.172343 0 0 0-68.266667 0v170.705676H341.333333v-136.533333a34.172343 34.172343 0 1 0-68.266666 0v136.533333h-68.266667A102.43901 102.43901 0 0 0 102.36099 443.928381v511.804952H34.172343a34.172343 34.172343 0 0 0 0 68.266667h1024a34.172343 34.172343 0 0 0 0-68.266667z m-853.372343-546.133333h682.666667a34.172343 34.172343 0 0 1 34.172343 34.172343V569.539048a143.555048 143.555048 0 0 0-62.415239 60.074666c-17.086171 25.590248-25.43421 36.0448-39.789714 36.0448s-22.859581-10.376533-39.945752-36.0448a118.510933 118.510933 0 0 0-96.587581-66.394209 116.092343 116.092343 0 0 0-96.587581 66.394209c-18.568533 28.008838-25.590248 36.0448-39.945753 36.0448s-22.703543-10.376533-39.789714-36.0448a118.82301 118.82301 0 0 0-96.743619-66.394209 116.092343 116.092343 0 0 0-96.587581 66.394209c-18.568533 28.008838-25.590248 36.0448-39.945752 36.0448s-22.859581-10.376533-39.945753-36.0448a142.228724 142.228724 0 0 0-62.415238-60.074666V443.772343a34.172343 34.172343 0 0 1 33.860267-34.172343z m-34.172343 249.660952c1.872457 2.574629 3.744914 5.305295 5.617372 8.348038a116.404419 116.404419 0 0 0 96.743619 66.39421 115.858286 115.858286 0 0 0 96.587581-66.39421c18.568533-28.008838 25.43421-36.0448 39.945752-36.0448s22.859581 10.376533 39.945752 36.0448A118.042819 118.042819 0 0 0 546.133333 733.847162a116.170362 116.170362 0 0 0 96.743619-66.39421c18.80259-28.008838 25.278171-36.0448 39.789715-36.0448s22.859581 10.376533 39.945752 36.0448a118.042819 118.042819 0 0 0 96.587581 66.39421 115.624229 115.624229 0 0 0 96.587581-66.39421c2.028495-3.042743 3.900952-6.007467 5.773409-8.504076v296.472381H170.705676z" fill="#E862BA" p-id="2211"></path><path d="M273.066667 68.188648a34.172343 34.172343 0 1 0 34.172343-34.094324 34.172343 34.172343 0 0 0-34.172343 34.094324z" fill="#E862BA" p-id="2212"></path><path d="M512.03901 34.172343A34.172343 34.172343 0 1 0 546.211352 0a34.094324 34.094324 0 0 0-34.250362 34.172343z" fill="#E862BA" p-id="2213"></path><path d="M751.011352 68.188648a34.172343 34.172343 0 1 0 34.172343-34.094324 34.094324 34.094324 0 0 0-34.250362 34.094324z" fill="#E862BA" p-id="2214"></path></svg>